<?xml version="1.0" encoding="UTF-8" standalone="no"?>
<svg xmlns:rdf="http://www.w3.org/1999/02/22-rdf-syntax-ns#" xmlns="http://www.w3.org/2000/svg" height="48" width="48" version="1.1" xmlns:cc="http://creativecommons.org/ns#" xmlns:xlink="http://www.w3.org/1999/xlink" viewBox="0 0 48 47.999998" xmlns:dc="http://purl.org/dc/elements/1.1/">
	<defs>
		<linearGradient id="a" x1="394" gradientUnits="userSpaceOnUse" y1="-131" gradientTransform="translate(-370 133)" x2="394" y2="-64.7">
			<stop stop-color="#cacaca" offset="0"/>
			<stop stop-color="#fefefe" offset="1"/>
		</linearGradient>
		<linearGradient id="c" y2="2" xlink:href="#a" gradientUnits="userSpaceOnUse" x2="44.7" gradientTransform="matrix(1.2 .441 -.441 1.2 -4.24 -26)" y1="28.4" x1="39.9"/>
		<linearGradient id="b" y2="-23.9" xlink:href="#a" gradientUnits="userSpaceOnUse" x2="92.6" gradientTransform="matrix(.389 -.179 .179 .389 -6.31 15.1)" y1="47.9" x1="23.2"/>
	</defs>
	<path d="m13.9 11.4-4.02 12.6-7.74 3.6c-1.66 0.8-1.76 2-1.32 3l3.51 7.6c0.434 0.944 1.53 1.88 3.19 1.12l7.78-3.58 12.2 5.34c0.444 0.0389 0.887-0.0314 1.28-0.212 0.392-0.181 0.671-0.425 0.929-0.788 0.519-0.726 0.543-1.63 0.173-2.43l-11.9-26c-0.37-0.804-1.07-1.38-1.96-1.46-0.889-0.078-1.66 0.423-2.18 1.15z" stroke="#858585" stroke-width=".512" fill="url(#b)"/>
	<path d="m32.4 17.7 10.6 22.6c0.289 0.623 0.592 0.711 1.21 0.423l2.75-1.36c0.493-0.299 0.429-0.673 0.233-1.05l-10.5-22.4zm7.31-9.83-6.84 0.811-9.77 4.38c-0.194 0.0904-0.278 0.32-0.188 0.515l2.54 5.49c0.0904 0.195 0.32 0.279 0.514 0.188l15.9-7.35c0.195-0.0896 0.279-0.319 0.188-0.514l-1.5-3.31c-0.0899-0.194-0.565-0.302-0.765-0.268z" stroke="#858585" stroke-width=".513" fill="url(#c)"/>
</svg>
