<svg xmlns="http://www.w3.org/2000/svg" version="1.1" x="0px" y="0px" viewBox="0 0 100 100" enable-background="new 0 0 100 100" xml:space="preserve">
	<defs>
		<linearGradient id="a" y2="100" gradientUnits="userSpaceOnUse" x2="0" y1="0" x1="0">
			<stop stop-color="#424242" offset="0"/>
			<stop stop-color="#818181" offset="1"/>
		</linearGradient>
	</defs>
	<path fill="url(#a)" d="M50,5C25.1,5,5,25.1,5,50c0,24.9,20.1,45,45,45c24.9,0,45-20.1,45-45C95,25.1,74.9,5,50,5L50,5z M57.1,75  c0,2.2-1.9,4.1-4.1,4.1h-6.2c-2.2,0-4.1-1.9-4.1-4.1V48.8c0-2.3,1.9-4.1,4.1-4.1h6.2c2.2,0,4.1,1.9,4.1,4.1V75z M49.9,37.9  c-4.6,0-8.4-3.8-8.4-8.5c0-4.7,3.8-8.5,8.4-8.5c4.7,0,8.5,3.8,8.5,8.5C58.4,34.1,54.6,37.9,49.9,37.9z"></path></svg>